<svg id="图层_1" data-name="图层 1" xmlns="http://www.w3.org/2000/svg" viewBox="0 0 200 200"><title>人物插画01</title><path d="M51.56,51.11h98.61S147.94,2.5,99.33,2.5,51.56,51.11,51.56,51.11Z" style="fill:#6c9dff"/><path d="M58.39,55.84l49.67-8.61,32.5,8.61s-.56,9.72.56,10,16.39,2.5,16.67,15-13.33,12.78-13.33,12.78l-1.67,18.61s.56,11.11-7.22,16.94a37.93,37.93,0,0,1-15.83,6.94H78.61S65,133.89,61.39,126.67a121.73,121.73,0,0,1-6.11-15l.83-17.78S40.56,90.28,41.67,79.44,56.94,67.78,56.94,67.78Z" style="fill:#ffece3"/><path d="M86.67,136h26l5.83,18.13,16,2.5v9.17s-11.87,5.83-34.37,6.88-38.12-14.17-38.12-14.17l20.63-3.75Z" style="fill:#ffece3"/><path d="M45.28,163.89c-8.33,9.72-10,32.78-10,32.78H163.61s1.94-20.28-9.17-31.11c-5.48-5.34-13.65-7.58-20.54-8.47,0,0-11.82,10.83-31.82,10.83-23.54,0-37.29-10.21-37.29-10.21A19.1,19.1,0,0,0,45.28,163.89Z" style="fill:#5bf499"/><circle cx="133.89" cy="102.78" r="9.17" style="fill:#ec7094"/><circle cx="66.11" cy="102.78" r="9.17" style="fill:#ec7094"/><path d="M48.33,67.29V55S62.5,43.33,106.25,43.33s46.46,13.33,46.46,13.33l-1.25,9.79-10.83.42S125.83,57.5,99.38,57.5s-40,8.75-40,8.75Z" style="fill:#fff385"/><path d="M82.66,68.64a9.19,9.19,0,0,1,5.41,1.44,2.5,2.5,0,0,0,3.5-.34,2.5,2.5,0,0,0-.32-3.52,13.73,13.73,0,0,0-8.58-2.58c-5.34,0-8.26,2.32-8.57,2.59a2.48,2.48,0,0,0-.31,3.47,2.51,2.51,0,0,0,3.5.37A9.06,9.06,0,0,1,82.66,68.64Z" style="fill:#4c4497"/><path d="M111.94,70.08a9.06,9.06,0,0,1,5.38-1.44,9.2,9.2,0,0,1,5.4,1.44,2.5,2.5,0,0,0,3.5-.34,2.5,2.5,0,0,0-.32-3.52,13.73,13.73,0,0,0-8.58-2.58c-5.34,0-8.26,2.32-8.57,2.59a2.48,2.48,0,0,0-.32,3.48A2.52,2.52,0,0,0,111.94,70.08Z" style="fill:#4c4497"/><path d="M166.05,180.84a30.53,30.53,0,0,0-27.23-26.53l-15.18-1.57a5.35,5.35,0,0,1-4.7-4.32L117,140h.18a29.16,29.16,0,0,0,29.13-30.51l-.57-12.41a17.11,17.11,0,0,0,9.71-29.7V55.54a3.34,3.34,0,0,0-.87-2.25,13.48,13.48,0,0,0-1.27-1.14,53.29,53.29,0,0,0-106.55,0,13.48,13.48,0,0,0-1.27,1.14,3.34,3.34,0,0,0-.87,2.25V67.38a17.11,17.11,0,0,0,9.71,29.7l-.57,12.41A29.16,29.16,0,0,0,82.85,140H83l-2,8.51a5.32,5.32,0,0,1-4.68,4.23l-15.18,1.57a30.53,30.53,0,0,0-27.22,26.53l-2,15.39A3.33,3.33,0,0,0,34.82,200l.43,0a3.33,3.33,0,0,0,3.3-2.9l2-15.39a23.89,23.89,0,0,1,21.3-20.76l3.8-.39c9.33,5.61,21.58,8.78,34.35,8.78,2.33,0,4.66-.1,6.93-.31a1.67,1.67,0,0,0,1.51-1.81,1.69,1.69,0,0,0-1.81-1.51c-2.17.2-4.4.29-6.63.29a66.84,66.84,0,0,1-28.45-6.06l5.49-.57A11.94,11.94,0,0,0,87.54,150l2.34-10h20.23l2.32,9.86A12,12,0,0,0,123,159.38l5.45.56a55.65,55.65,0,0,1-5.4,2.26,1.67,1.67,0,0,0,.56,3.24,1.65,1.65,0,0,0,.56-.09,56.26,56.26,0,0,0,10.23-4.79l3.79.39a23.89,23.89,0,0,1,21.31,20.76l2,15.39a3.33,3.33,0,0,0,3.3,2.9l.43,0a3.33,3.33,0,0,0,2.87-3.73Zm-20.65-90.4-.55-12,3.49,1.91a1.66,1.66,0,0,0,2.26-.66,1.66,1.66,0,0,0-.66-2.26l-5.27-2.87-.23-5a10.52,10.52,0,0,1,1,20.91ZM100,6.67A46.72,46.72,0,0,1,146.34,48a59.48,59.48,0,0,0-6.11-2.43,31.83,31.83,0,0,0-4.33-13.3A1.67,1.67,0,0,0,133,34a28.45,28.45,0,0,1,3.71,10.5c-1.58-.45-3.25-.89-5.08-1.3a22.19,22.19,0,0,0-2-6.45,1.67,1.67,0,0,0-3,1.5,18.76,18.76,0,0,1,1.53,4.26A152.53,152.53,0,0,0,100,40.16c-24.31,0-38.54,4.2-46.34,7.85A46.72,46.72,0,0,1,100,6.67ZM51.25,57.07C54.54,54.58,67.44,46.83,100,46.83s45.51,7.79,48.75,10.23v6.55a17,17,0,0,0-4.94-.81v.06a3.29,3.29,0,0,0-1.07-1.26c-.44-.3-11-7.24-42.74-7.24S57.7,61.3,57.26,61.6a3.29,3.29,0,0,0-1.07,1.26V62.8a17,17,0,0,0-4.94.81ZM45.62,80a10.56,10.56,0,0,1,9.94-10.51l-.23,5-5.27,2.87a1.67,1.67,0,0,0,.8,3.13,1.64,1.64,0,0,0,.8-.21l3.49-1.91-.55,12A10.56,10.56,0,0,1,45.62,80Zm21,46.33a22.29,22.29,0,0,1-6.2-16.57l2-43.37C66,64.82,76.9,61,100,61s34.06,3.81,37.62,5.4l2,43.38a22.5,22.5,0,0,1-22.47,23.54H82.85A22.3,22.3,0,0,1,66.58,126.37Z" style="fill:#4c4497"/><path d="M116.69,164.07c-.73.18-1.47.34-2.21.49a1.67,1.67,0,0,0,.66,3.27c.78-.16,1.56-.34,2.32-.52a1.67,1.67,0,0,0,1.23-2A1.65,1.65,0,0,0,116.69,164.07Z" style="fill:#4c4497"/><path d="M117.5,96.35A1.67,1.67,0,0,0,115.83,98c0,6.92-7.1,12.54-15.83,12.54S84.17,104.93,84.17,98a1.67,1.67,0,1,0-3.33,0c0,8.75,8.6,15.88,19.17,15.88s19.17-7.12,19.17-15.88A1.67,1.67,0,0,0,117.5,96.35Z" style="fill:#4c4497"/><circle cx="83.89" cy="79.72" r="6.63" style="fill:#4c4497"/><circle cx="116.11" cy="79.72" r="6.63" style="fill:#4c4497"/></svg>